<svg xmlns="http://www.w3.org/2000/svg" viewBox="0 0 280 600" role="img" aria-label="Bản đồ 63 tỉnh thành Việt Nam">
  <title>Bản đồ 63 tỉnh thành Việt Nam</title>
  <g id="provinces-63">
    <path id="p45" title="Lai Châu" fill="var(--province-fill,#e8ead6)" stroke="#fff" stroke-width="0.5" d="M31,24 h28 v34 h-28 Z"/>
    <path id="p48" title="Lào Cai" fill="var(--province-fill,#e8ead6)" stroke="#fff" stroke-width="0.5" d="M62,25 h26 v32 h-26 Z"/>
    <path id="p31" title="Điện Biên" fill="var(--province-fill,#e8ead6)" stroke="#fff" stroke-width="0.5" d="M25,64 h26 v30 h-26 Z"/>
    <path id="p62" title="Sơn La" fill="var(--province-fill,#e8ead6)" stroke="#fff" stroke-width="0.5" d="M56,73 h30 v26 h-30 Z"/>
    <path id="p40" title="Hòa Bình" fill="var(--province-fill,#e8ead6)" stroke="#fff" stroke-width="0.5" d="M117,90 h22 v22 h-22 Z"/>
    <path id="p35" title="Hà Giang" fill="var(--province-fill,#e8ead6)" stroke="#fff" stroke-width="0.5" d="M97,12 h24 v28 h-24 Z"/>
    <path id="p73" title="Yên Bái" fill="var(--province-fill,#e8ead6)" stroke="#fff" stroke-width="0.5" d="M86,55 h22 v26 h-22 Z"/>
    <path id="p70" title="Tuyên Quang" fill="var(--province-fill,#e8ead6)" stroke="#fff" stroke-width="0.5" d="M111,53 h18 v22 h-18 Z"/>
    <path id="p28" title="Cao Bằng" fill="var(--province-fill,#e8ead6)" stroke="#fff" stroke-width="0.5" d="M139,21 h22 v26 h-22 Z"/>
    <path id="p20" title="Bắc Kạn" fill="var(--province-fill,#e8ead6)" stroke="#fff" stroke-width="0.5" d="M133,42 h18 v20 h-18 Z"/>
    <path id="p47" title="Lạng Sơn" fill="var(--province-fill,#e8ead6)" stroke="#fff" stroke-width="0.5" d="M166,53 h20 v22 h-20 Z"/>
    <path id="p59" title="Quảng Ninh" fill="var(--province-fill,#e8ead6)" stroke="#fff" stroke-width="0.5" d="M183,84 h24 v20 h-24 Z"/>
    <path id="p65" title="Thái Nguyên" fill="var(--province-fill,#e8ead6)" stroke="#fff" stroke-width="0.5" d="M138,62 h16 v18 h-16 Z"/>
    <path id="p19" title="Bắc Giang" fill="var(--province-fill,#e8ead6)" stroke="#fff" stroke-width="0.5" d="M152,73 h18 v18 h-18 Z"/>
    <path id="p54" title="Phú Thọ" fill="var(--province-fill,#e8ead6)" stroke="#fff" stroke-width="0.5" d="M104,70 h16 v18 h-16 Z"/>
    <path id="p72" title="Vĩnh Phúc" fill="var(--province-fill,#e8ead6)" stroke="#fff" stroke-width="0.5" d="M128,71 h14 v16 h-14 Z"/>
    <path id="p21" title="Bắc Ninh" fill="var(--province-fill,#e8ead6)" stroke="#fff" stroke-width="0.5" d="M148,83 h12 v14 h-12 Z"/>
    <path id="p11" title="Hà Nội" fill="var(--province-fill,#e8ead6)" stroke="#fff" stroke-width="0.5" d="M134,86 h16 v16 h-16 Z"/>
    <path id="p38" title="Hải Dương" fill="var(--province-fill,#e8ead6)" stroke="#fff" stroke-width="0.5" d="M154,91 h14 v14 h-14 Z"/>
    <path id="p13" title="Hải Phòng" fill="var(--province-fill,#e8ead6)" stroke="#fff" stroke-width="0.5" d="M169,94 h14 v14 h-14 Z"/>
    <path id="p41" title="Hưng Yên" fill="var(--province-fill,#e8ead6)" stroke="#fff" stroke-width="0.5" d="M144,103 h12 v12 h-12 Z"/>
    <path id="p36" title="Hà Nam" fill="var(--province-fill,#e8ead6)" stroke="#fff" stroke-width="0.5" d="M140,106 h12 v12 h-12 Z"/>
    <path id="p64" title="Thái Bình" fill="var(--province-fill,#e8ead6)" stroke="#fff" stroke-width="0.5" d="M158,106 h14 v12 h-14 Z"/>
    <path id="p50" title="Nam Định" fill="var(--province-fill,#e8ead6)" stroke="#fff" stroke-width="0.5" d="M152,114 h12 v12 h-12 Z"/>
    <path id="p52" title="Ninh Bình" fill="var(--province-fill,#e8ead6)" stroke="#fff" stroke-width="0.5" d="M140,114 h12 v12 h-12 Z"/>
    <path id="p66" title="Thanh Hóa" fill="var(--province-fill,#e8ead6)" stroke="#fff" stroke-width="0.5" d="M118,128 h26 v22 h-26 Z"/>
    <path id="p51" title="Nghệ An" fill="var(--province-fill,#e8ead6)" stroke="#fff" stroke-width="0.5" d="M94,148 h30 v26 h-30 Z"/>
    <path id="p37" title="Hà Tĩnh" fill="var(--province-fill,#e8ead6)" stroke="#fff" stroke-width="0.5" d="M130,184 h18 v22 h-18 Z"/>
    <path id="p56" title="Quảng Bình" fill="var(--province-fill,#e8ead6)" stroke="#fff" stroke-width="0.5" d="M150,214 h16 v22 h-16 Z"/>
    <path id="p60" title="Quảng Trị" fill="var(--province-fill,#e8ead6)" stroke="#fff" stroke-width="0.5" d="M181,242 h14 v18 h-14 Z"/>
    <path id="p67" title="Thừa Thiên Huế" fill="var(--province-fill,#e8ead6)" stroke="#fff" stroke-width="0.5" d="M203,254 h14 v16 h-14 Z"/>
    <path id="p14" title="Đà Nẵng" fill="var(--province-fill,#e8ead6)" stroke="#fff" stroke-width="0.5" d="M224,276 h10 v10 h-10 Z"/>
    <path id="p57" title="Quảng Nam" fill="var(--province-fill,#e8ead6)" stroke="#fff" stroke-width="0.5" d="M211,285 h20 v22 h-20 Z"/>
    <path id="p58" title="Quảng Ngãi" fill="var(--province-fill,#e8ead6)" stroke="#fff" stroke-width="0.5" d="M249,306 h12 v18 h-12 Z"/>
    <path id="p24" title="Bình Định" fill="var(--province-fill,#e8ead6)" stroke="#fff" stroke-width="0.5" d="M253,343 h12 v18 h-12 Z"/>
    <path id="p55" title="Phú Yên" fill="var(--province-fill,#e8ead6)" stroke="#fff" stroke-width="0.5" d="M261,381 h10 v18 h-10 Z"/>
    <path id="p42" title="Khánh Hòa" fill="var(--province-fill,#e8ead6)" stroke="#fff" stroke-width="0.5" d="M257,411 h10 v18 h-10 Z"/>
    <path id="p53" title="Ninh Thuận" fill="var(--province-fill,#e8ead6)" stroke="#fff" stroke-width="0.5" d="M254,439 h10 v14 h-10 Z"/>
    <path id="p26" title="Bình Thuận" fill="var(--province-fill,#e8ead6)" stroke="#fff" stroke-width="0.5" d="M227,456 h18 v18 h-18 Z"/>
    <path id="p44" title="Kon Tum" fill="var(--province-fill,#e8ead6)" stroke="#fff" stroke-width="0.5" d="M202,325 h24 v26 h-24 Z"/>
    <path id="p34" title="Gia Lai" fill="var(--province-fill,#e8ead6)" stroke="#fff" stroke-width="0.5" d="M213,353 h24 v22 h-24 Z"/>
    <path id="p29" title="Đắk Lắk" fill="var(--province-fill,#e8ead6)" stroke="#fff" stroke-width="0.5" d="M212,393 h26 v24 h-26 Z"/>
    <path id="p30" title="Đắk Nông" fill="var(--province-fill,#e8ead6)" stroke="#fff" stroke-width="0.5" d="M204,426 h20 v18 h-20 Z"/>
    <path id="p46" title="Lâm Đồng" fill="var(--province-fill,#e8ead6)" stroke="#fff" stroke-width="0.5" d="M222,432 h22 v20 h-22 Z"/>
    <path id="p25" title="Bình Phước" fill="var(--province-fill,#e8ead6)" stroke="#fff" stroke-width="0.5" d="M177,440 h22 v20 h-22 Z"/>
    <path id="p63" title="Tây Ninh" fill="var(--province-fill,#e8ead6)" stroke="#fff" stroke-width="0.5" d="M145,449 h18 v18 h-18 Z"/>
    <path id="p23" title="Bình Dương" fill="var(--province-fill,#e8ead6)" stroke="#fff" stroke-width="0.5" d="M169,457 h14 v16 h-14 Z"/>
    <path id="p32" title="Đồng Nai" fill="var(--province-fill,#e8ead6)" stroke="#fff" stroke-width="0.5" d="M185,460 h20 v18 h-20 Z"/>
    <path id="p12" title="TP. Hồ Chí Minh" fill="var(--province-fill,#e8ead6)" stroke="#fff" stroke-width="0.5" d="M170,470 h12 v12 h-12 Z"/>
    <path id="p17" title="Bà Rịa-Vũng Tàu" fill="var(--province-fill,#e8ead6)" stroke="#fff" stroke-width="0.5" d="M192,476 h14 v16 h-14 Z"/>
    <path id="p49" title="Long An" fill="var(--province-fill,#e8ead6)" stroke="#fff" stroke-width="0.5" d="M149,472 h18 v16 h-18 Z"/>
    <path id="p68" title="Tiền Giang" fill="var(--province-fill,#e8ead6)" stroke="#fff" stroke-width="0.5" d="M157,484 h16 v14 h-16 Z"/>
    <path id="p33" title="Đồng Tháp" fill="var(--province-fill,#e8ead6)" stroke="#fff" stroke-width="0.5" d="M126,480 h18 v16 h-18 Z"/>
    <path id="p22" title="Bến Tre" fill="var(--province-fill,#e8ead6)" stroke="#fff" stroke-width="0.5" d="M162,495 h14 v14 h-14 Z"/>
    <path id="p16" title="An Giang" fill="var(--province-fill,#e8ead6)" stroke="#fff" stroke-width="0.5" d="M111,483 h18 v16 h-18 Z"/>
    <path id="p71" title="Vĩnh Long" fill="var(--province-fill,#e8ead6)" stroke="#fff" stroke-width="0.5" d="M143,492 h14 v14 h-14 Z"/>
    <path id="p43" title="Kiên Giang" fill="var(--province-fill,#e8ead6)" stroke="#fff" stroke-width="0.5" d="M102,496 h20 v20 h-20 Z"/>
    <path id="p15" title="Cần Thơ" fill="var(--province-fill,#e8ead6)" stroke="#fff" stroke-width="0.5" d="M136,500 h12 v12 h-12 Z"/>
    <path id="p39" title="Hậu Giang" fill="var(--province-fill,#e8ead6)" stroke="#fff" stroke-width="0.5" d="M129,508 h12 v12 h-12 Z"/>
    <path id="p69" title="Trà Vinh" fill="var(--province-fill,#e8ead6)" stroke="#fff" stroke-width="0.5" d="M155,503 h12 v14 h-12 Z"/>
    <path id="p61" title="Sóc Trăng" fill="var(--province-fill,#e8ead6)" stroke="#fff" stroke-width="0.5" d="M143,514 h14 v14 h-14 Z"/>
    <path id="p18" title="Bạc Liêu" fill="var(--province-fill,#e8ead6)" stroke="#fff" stroke-width="0.5" d="M132,525 h14 v14 h-14 Z"/>
    <path id="p27" title="Cà Mau" fill="var(--province-fill,#e8ead6)" stroke="#fff" stroke-width="0.5" d="M107,534 h18 v20 h-18 Z"/>
  </g>
  <!-- Province abbreviation labels for larger provinces (≥16×16 px) -->
  <g id="province-labels-63" aria-hidden="true" pointer-events="none"
     font-family="system-ui,sans-serif" text-anchor="middle" dominant-baseline="central"
     fill="#444" font-weight="700" font-size="5">
    <text x="45"  y="41">LC</text>
    <text x="75"  y="41">LCai</text>
    <text x="38"  y="79">ĐB</text>
    <text x="71"  y="86">SL</text>
    <text x="128" y="101">HB</text>
    <text x="109" y="26">HG</text>
    <text x="97"  y="68">YB</text>
    <text x="120" y="64">TQ</text>
    <text x="150" y="34">CB</text>
    <text x="142" y="52">BK</text>
    <text x="176" y="64">LS</text>
    <text x="195" y="94">QNinh</text>
    <text x="146" y="71">TgN</text>
    <text x="161" y="82">BG</text>
    <text x="112" y="79">PT</text>
    <text x="142" y="94">HN</text>
    <text x="131" y="139">TH</text>
    <text x="109" y="161">NA</text>
    <text x="139" y="195">HT</text>
    <text x="158" y="225">QB</text>
    <text x="221" y="296">QNam</text>
    <text x="236" y="465">BT</text>
    <text x="214" y="338">KT</text>
    <text x="225" y="364">GL</text>
    <text x="225" y="405">ĐL</text>
    <text x="214" y="435">ĐNg</text>
    <text x="233" y="442">LĐ</text>
    <text x="188" y="450">BP</text>
    <text x="154" y="458">TN</text>
    <text x="195" y="469">ĐNai</text>
    <text x="158" y="480">LA</text>
    <text x="135" y="488">ĐT</text>
    <text x="120" y="491">AG</text>
    <text x="112" y="506">KG</text>
    <text x="116" y="544">CM</text>
  </g>
</svg>